<?xml version="1.0" standalone="no"?><!DOCTYPE svg PUBLIC "-//W3C//DTD SVG 1.1//EN" "http://www.w3.org/Graphics/SVG/1.1/DTD/svg11.dtd"><svg height="512" node-id="1" sillyvg="true" template-height="512" template-width="512" version="1.1" viewBox="0 0 512 512" width="512" xmlns="http://www.w3.org/2000/svg" xmlns:xlink="http://www.w3.org/1999/xlink"><defs node-id="57"><linearGradient gradientUnits="objectBoundingBox" id="SVGID_1_" node-id="2" spreadMethod="pad" x1="-225.7911" x2="258.4989" y1="273.675" y2="273.675"><stop offset="0" stop-color="#b8de6f"></stop><stop offset="1" stop-color="#8aa753"></stop></linearGradient><linearGradient gradientUnits="objectBoundingBox" id="SVGID_2_" node-id="6" spreadMethod="pad" x1="229.0494" x2="117.5394" y1="-58.9265" y2="52.5835"><stop offset="0" stop-color="#b8de6f" stop-opacity="0"></stop><stop offset="1" stop-color="#4b7104"></stop></linearGradient><linearGradient gradientUnits="objectBoundingBox" id="SVGID_3_" node-id="10" spreadMethod="pad" x1="254.8089" x2="254.8089" y1="83.693" y2="28.273"><stop offset="0" stop-color="#fff2eb"></stop><stop offset="1" stop-color="#f1dacb"></stop></linearGradient><linearGradient gradientUnits="objectBoundingBox" id="SVGID_4_" node-id="14" spreadMethod="pad" x1="128.8676" x2="354.4676" y1="481.5302" y2="117.1603"><stop offset="0" stop-color="#b8de6f"></stop><stop offset="1" stop-color="#8aa753"></stop></linearGradient><linearGradient gradientUnits="objectBoundingBox" id="SVGID_5_" node-id="18" spreadMethod="pad" x1="254.8084" x2="254.8084" y1="58.813" y2="80.483"><stop offset="0" stop-color="#fff2eb" stop-opacity="0"></stop><stop offset="1" stop-color="#d3b4a0"></stop></linearGradient><linearGradient gradientUnits="objectBoundingBox" id="SVGID_6_" node-id="22" spreadMethod="pad" x1="230.414" x2="172.72" y1="8.8122" y2="120.3222"><stop offset="0" stop-color="#b8de6f" stop-opacity="0"></stop><stop offset="1" stop-color="#4b7104"></stop></linearGradient><linearGradient gradientUnits="objectBoundingBox" id="SVGID_7_" node-id="29" spreadMethod="pad" x1="265.3214" x2="265.3214" y1="209.633" y2="2.133"><stop offset="0" stop-color="#fff2eb"></stop><stop offset="1" stop-color="#f1dacb"></stop></linearGradient><linearGradient gradientUnits="objectBoundingBox" id="SVGID_8_" node-id="33" spreadMethod="pad" x1="203.8669" x2="117.1669" y1="-27.309" y2="59.391"><stop offset="0" stop-color="#fff2eb" stop-opacity="0"></stop><stop offset="1" stop-color="#d3b4a0"></stop></linearGradient><linearGradient gradientUnits="objectBoundingBox" id="SVGID_9_" node-id="37" spreadMethod="pad" x1="123.3299" x2="123.3299" y1="58.463" y2="-32.907"><stop offset="0" stop-color="#fcc344"></stop><stop offset="1" stop-color="#f7ae3d"></stop></linearGradient></defs><path d="M 431.20 483.60 L 80.80 483.60 L 76.60 483.30 L 72.70 482.50 L 68.90 481.20 L 65.40 479.50 L 62.20 477.30 L 59.30 474.70 L 56.70 471.80 L 54.50 468.60 L 52.70 465.00 L 51.40 461.30 L 50.60 457.40 L 50.30 453.20 L 50.30 30.40 L 50.60 26.30 L 51.40 22.30 L 52.70 18.60 L 54.50 15.10 L 56.70 11.80 L 59.30 8.90 L 62.20 6.30 L 65.40 4.20 L 68.90 2.40 L 72.70 1.10 L 76.60 0.30 L 80.80 0.00 L 431.20 0.00 L 435.40 0.30 L 439.30 1.10 L 443.10 2.40 L 446.60 4.20 L 449.80 6.30 L 452.70 8.90 L 455.30 11.80 L 457.50 15.10 L 459.30 18.60 L 460.60 22.30 L 461.40 26.30 L 461.70 30.40 L 461.70 453.20 L 461.40 457.40 L 460.60 461.30 L 459.30 465.00 L 457.50 468.60 L 455.30 471.80 L 452.70 474.70 L 449.80 477.30 L 446.60 479.50 L 443.10 481.20 L 439.30 482.50 L 435.40 483.30 L 431.20 483.60 Z" fill="url(#SVGID_1_)" fill-rule="nonzero" node-id="114" stroke="none" target-height="483.6" target-width="411.40002" target-x="50.3" target-y="0"></path><path d="M 182.10 483.60 L 154.00 455.50 L 94.00 455.50 L 94.00 483.60 Z" fill="url(#SVGID_2_)" fill-rule="nonzero" node-id="116" stroke="none" target-height="28.100006" target-width="88.100006" target-x="94" target-y="455.5"></path><path d="M 421.80 470.70 L 79.10 470.70 L 75.90 470.40 L 72.90 469.60 L 70.10 468.30 L 67.60 466.50 L 65.50 464.40 L 63.80 461.90 L 62.40 459.10 L 61.60 456.20 L 61.30 452.90 L 61.30 41.70 L 61.60 37.80 L 62.40 34.10 L 63.60 30.50 L 65.30 27.20 L 67.30 24.10 L 69.80 21.40 L 72.50 18.90 L 75.60 16.90 L 78.90 15.20 L 82.50 14.00 L 86.20 13.20 L 90.20 12.90 L 421.80 12.90 L 425.80 13.20 L 429.50 14.00 L 433.10 15.20 L 436.40 16.90 L 439.50 18.90 L 442.20 21.40 L 444.70 24.10 L 446.70 27.20 L 448.40 30.50 L 449.60 34.10 L 450.40 37.80 L 450.70 41.70 L 450.70 441.90 L 450.40 445.80 L 449.60 449.60 L 448.40 453.10 L 446.70 456.40 L 444.70 459.50 L 442.20 462.30 L 439.50 464.70 L 436.40 466.80 L 433.10 468.40 L 429.50 469.70 L 425.80 470.40 L 421.80 470.70 Z" fill="url(#SVGID_3_)" fill-rule="nonzero" node-id="118" stroke="none" target-height="457.80002" target-width="389.40002" target-x="61.3" target-y="12.9"></path><path d="M 431.20 0.00 L 80.80 0.00 L 76.60 0.30 L 72.70 1.10 L 68.90 2.40 L 65.40 4.20 L 62.20 6.30 L 59.30 8.90 L 56.70 11.80 L 54.50 15.10 L 52.70 18.60 L 51.40 22.30 L 50.60 26.30 L 50.30 30.40 L 50.30 452.90 L 61.30 452.90 L 61.60 449.80 L 62.40 447.00 L 63.70 444.40 L 65.30 442.00 L 67.40 439.90 L 69.70 438.30 L 72.40 437.00 L 75.20 436.20 L 78.30 435.90 L 431.20 435.90 L 435.40 435.70 L 439.30 434.90 L 443.10 433.60 L 446.60 431.80 L 449.80 429.60 L 452.70 427.00 L 455.30 424.10 L 457.50 420.90 L 459.30 417.30 L 460.60 413.60 L 461.40 409.70 L 461.70 405.50 L 461.70 30.40 L 461.40 26.30 L 460.60 22.30 L 459.30 18.60 L 457.50 15.10 L 455.30 11.80 L 452.70 8.90 L 449.80 6.30 L 446.60 4.20 L 443.10 2.40 L 439.30 1.10 L 435.40 0.30 L 431.20 0.00 Z" fill="url(#SVGID_4_)" fill-rule="nonzero" node-id="120" stroke="none" target-height="452.9" target-width="411.40002" target-x="50.3" target-y="0"></path><path d="M 431.20 435.90 L 78.30 435.90 L 75.20 436.20 L 72.40 437.00 L 69.70 438.30 L 67.40 439.90 L 65.30 442.00 L 63.70 444.30 L 62.40 447.00 L 61.60 449.80 L 61.30 452.90 L 61.60 456.20 L 62.40 459.10 L 63.80 461.90 L 65.50 464.40 L 67.60 466.50 L 70.10 468.30 L 72.90 469.60 L 75.90 470.40 L 79.10 470.70 L 421.80 470.70 L 425.80 470.40 L 429.50 469.70 L 433.10 468.40 L 436.40 466.80 L 439.50 464.70 L 442.20 462.30 L 444.70 459.50 L 446.70 456.40 L 448.40 453.10 L 449.60 449.60 L 450.40 445.80 L 450.70 441.90 L 450.70 428.90 L 444.90 432.70 L 441.70 434.10 L 438.40 435.10 L 434.90 435.70 L 431.20 435.90 Z" fill="url(#SVGID_5_)" fill-rule="nonzero" node-id="122" stroke="none" target-height="41.80002" target-width="389.40002" target-x="61.3" target-y="428.9"></path><path d="M 79.10 470.70 L 75.90 470.40 L 72.90 469.60 L 70.10 468.30 L 67.60 466.50 L 65.50 464.40 L 63.80 461.90 L 62.40 459.10 L 61.60 456.20 L 61.30 452.90 L 61.90 448.40 L 62.70 446.30 L 64.20 443.40 L 66.30 440.90 L 68.80 438.90 L 71.70 437.30 L 73.80 436.60 L 78.30 435.90 L 125.60 435.90 L 125.60 0.00 L 80.80 0.00 L 76.60 0.30 L 72.70 1.10 L 68.90 2.40 L 65.40 4.20 L 62.20 6.30 L 59.30 8.90 L 56.70 11.80 L 54.50 15.10 L 52.70 18.60 L 51.40 22.30 L 50.60 26.30 L 50.30 30.40 L 50.30 453.20 L 50.60 457.40 L 51.40 461.30 L 52.70 465.00 L 54.50 468.60 L 56.70 471.80 L 59.30 474.70 L 62.20 477.30 L 65.40 479.50 L 68.90 481.20 L 72.70 482.50 L 76.60 483.30 L 80.80 483.60 L 125.60 483.60 L 125.60 470.70 L 79.10 470.70 Z" fill="url(#SVGID_6_)" fill-rule="nonzero" node-id="124" stroke="none" target-height="483.6" target-width="75.3" target-x="50.3" target-y="0"></path><g node-id="139"><path d="M 371.80 101.10 L 161.30 101.10 L 159.40 100.80 L 157.60 100.10 L 156.10 99.00 L 155.00 97.50 L 154.30 95.80 L 154.00 93.80 L 154.00 83.30 L 154.30 81.30 L 155.00 79.60 L 156.10 78.10 L 157.60 77.00 L 159.40 76.30 L 161.30 76.00 L 371.80 76.00 L 373.80 76.30 L 375.50 77.00 L 377.00 78.10 L 378.10 79.60 L 378.80 81.30 L 379.10 83.30 L 379.10 93.80 L 378.80 95.80 L 378.10 97.50 L 377.00 99.00 L 375.50 100.10 L 373.80 100.80 L 371.80 101.10 Z" fill="#ffffff" fill-rule="nonzero" group-id="1" node-id="128" stroke="none" target-height="25.099998" target-width="225.1" target-x="154" target-y="76"></path><path d="M 318.00 146.50 L 215.20 146.50 L 213.20 146.20 L 211.50 145.50 L 210.00 144.40 L 208.90 142.90 L 208.10 141.20 L 207.90 139.20 L 207.90 128.70 L 208.10 126.80 L 208.90 125.00 L 210.00 123.50 L 211.50 122.40 L 213.20 121.70 L 215.20 121.40 L 318.00 121.40 L 319.90 121.70 L 321.60 122.40 L 323.10 123.60 L 324.30 125.00 L 325.00 126.80 L 325.30 128.70 L 325.30 139.20 L 325.00 141.20 L 324.30 142.90 L 323.10 144.40 L 321.60 145.50 L 319.90 146.20 L 318.00 146.50 Z" fill="#ffffff" fill-rule="nonzero" group-id="1" node-id="130" stroke="none" target-height="25.099998" target-width="117.399994" target-x="207.9" target-y="121.4"></path></g><path d="M 364.00 377.40 L 169.10 377.40 L 166.30 377.20 L 163.80 376.50 L 161.50 375.40 L 159.40 373.90 L 157.60 372.10 L 156.10 370.00 L 155.00 367.60 L 154.30 365.10 L 154.00 362.40 L 154.00 305.60 L 154.30 302.90 L 155.00 300.40 L 156.10 298.00 L 157.60 295.90 L 159.40 294.10 L 161.50 292.60 L 163.80 291.50 L 166.30 290.80 L 169.10 290.60 L 364.00 290.60 L 366.80 290.80 L 369.30 291.50 L 371.60 292.60 L 373.80 294.10 L 375.50 295.90 L 377.00 298.00 L 378.20 300.40 L 378.80 302.90 L 379.10 305.60 L 379.10 362.40 L 378.80 365.10 L 378.20 367.60 L 377.00 370.00 L 375.50 372.10 L 373.80 373.90 L 371.60 375.40 L 369.30 376.50 L 366.80 377.20 L 364.00 377.40 Z" fill="url(#SVGID_7_)" fill-rule="nonzero" node-id="133" stroke="none" target-height="86.79999" target-width="225.1" target-x="154" target-y="290.6"></path><path d="M 169.20 470.70 L 154.00 455.50 L 94.00 455.50 L 94.00 470.70 Z" fill="url(#SVGID_8_)" fill-rule="nonzero" node-id="135" stroke="none" target-height="15.200012" target-width="75.2" target-x="94" target-y="455.5"></path><path d="M 146.10 511.40 L 126.50 501.00 L 124.00 500.40 L 121.50 501.00 L 100.60 511.80 L 98.30 511.90 L 96.60 511.20 L 95.30 510.10 L 94.20 507.90 L 94.00 506.60 L 94.00 455.50 L 154.00 455.50 L 153.80 507.90 L 152.80 510.10 L 151.40 511.20 L 148.60 512.00 L 146.10 511.40 Z" fill="url(#SVGID_9_)" fill-rule="nonzero" node-id="137" stroke="none" target-height="56.5" target-width="60" target-x="94" target-y="455.5"></path></svg>