<?xml version="1.0" standalone="no"?><!DOCTYPE svg PUBLIC "-//W3C//DTD SVG 1.1//EN" "http://www.w3.org/Graphics/SVG/1.1/DTD/svg11.dtd"><svg height="1024" node-id="1" sillyvg="true" template-height="1024" template-width="1024" version="1.1" viewBox="0 0 1024 1024" width="1024" xmlns="http://www.w3.org/2000/svg" xmlns:xlink="http://www.w3.org/1999/xlink"><defs node-id="164"></defs><g node-id="603"><g node-id="643"><g node-id="683"><path d="M 791.70 767.40 L 792.00 759.70 L 792.80 753.10 L 794.20 747.30 L 796.10 742.30 L 798.30 737.90 L 800.90 734.20 L 804.00 731.00 L 807.40 728.30 L 811.40 726.10 L 815.80 724.30 L 820.90 723.00 L 820.90 722.20 L 422.90 722.20 L 416.90 722.80 L 411.40 724.10 L 406.20 726.00 L 401.40 728.60 L 396.80 731.80 L 392.40 735.80 L 388.50 740.40 L 385.30 745.20 L 382.90 750.30 L 381.10 755.60 L 380.00 761.30 L 379.70 767.40 L 380.00 773.60 L 381.10 779.40 L 382.90 784.80 L 385.30 789.80 L 388.50 794.50 L 392.40 799.00 L 396.90 803.00 L 401.60 806.10 L 406.60 808.60 L 411.90 810.40 L 417.60 811.40 L 423.70 811.80 L 820.10 811.80 L 814.70 810.40 L 810.10 808.40 L 806.00 805.80 L 802.50 802.60 L 799.40 798.90 L 796.80 794.40 L 794.70 789.20 L 793.10 783.00 L 792.00 775.80 L 791.70 767.40 Z" fill="#ffffff" fill-rule="nonzero" group-id="1,41,81" node-id="172" stroke="none" target-height="89.599976" target-width="441.2" target-x="379.7" target-y="722.2"></path></g></g></g><g node-id="604"><g node-id="644"><g node-id="684"><path d="M 822.50 205.00 L 819.10 202.00 L 815.60 199.60 L 811.90 197.80 L 808.10 196.50 L 804.00 195.70 L 799.60 195.40 L 422.10 195.40 L 422.10 731.40 L 799.60 731.40 L 804.80 731.00 L 809.70 729.90 L 814.20 728.10 L 818.40 725.60 L 822.50 722.20 L 825.80 718.30 L 828.30 714.20 L 830.20 709.80 L 831.30 705.00 L 831.70 699.80 L 831.70 227.40 L 831.30 222.20 L 830.20 217.40 L 828.30 213.00 L 825.80 208.90 L 822.50 205.00 Z" fill="#ffc23a" fill-rule="nonzero" group-id="2,42,82" node-id="183" stroke="none" target-height="536" target-width="409.6" target-x="422.1" target-y="195.4"></path></g></g></g><g node-id="605"><g node-id="645"><g node-id="685"><path d="M 372.40 231.40 L 371.60 238.40 L 371.40 244.90 L 371.70 251.00 L 370.40 771.80 L 370.90 779.80 L 371.30 779.80 L 372.60 785.70 L 374.70 791.10 L 377.30 796.10 L 380.60 800.90 L 384.60 805.30 L 389.30 809.40 L 394.50 813.10 L 399.90 816.00 L 405.60 818.40 L 411.70 820.00 L 418.10 821.10 L 424.90 821.40 L 426.10 821.00 L 426.10 811.80 L 424.40 811.80 L 425.00 808.70 L 424.90 799.80 L 423.90 782.10 L 423.70 770.60 L 424.00 759.30 L 425.60 734.60 L 425.30 731.60 L 424.90 731.00 L 427.30 731.40 L 426.10 285.00 L 427.30 285.00 L 427.30 195.40 L 418.40 195.70 L 412.40 196.50 L 406.50 197.90 L 401.00 199.90 L 395.60 202.40 L 390.40 205.40 L 385.50 209.20 L 381.50 213.20 L 378.20 217.40 L 375.60 221.80 L 373.70 226.40 L 372.40 231.40 Z" fill="#f9a431" fill-rule="nonzero" group-id="3,43,83" node-id="194" stroke="none" target-height="626" target-width="56.899994" target-x="370.4" target-y="195.4"></path></g></g></g><g node-id="606"><g node-id="646"><g node-id="686"><path d="M 825.70 812.60 L 820.80 807.30 L 816.80 801.80 L 813.60 796.20 L 811.30 790.50 L 809.70 784.50 L 808.80 778.20 L 808.70 771.70 L 809.30 764.80 L 810.90 757.40 L 823.70 729.40 L 394.10 723.80 L 396.40 812.60 L 825.70 812.60 Z" fill="#e7e5e5" fill-rule="nonzero" group-id="4,44,84" node-id="205" stroke="none" target-height="88.79999" target-width="431.6" target-x="394.1" target-y="723.8"></path></g></g></g><g node-id="607"><g node-id="647"><g node-id="687"><path d="M 816.80 739.40 L 818.70 735.80 L 821.10 732.50 L 824.10 729.40 L 400.10 719.40 L 394.10 779.00 L 399.80 775.30 L 407.00 771.50 L 416.00 767.70 L 427.10 763.90 L 440.60 760.10 L 456.80 756.30 L 476.10 752.60 L 497.50 749.30 L 521.20 746.30 L 547.40 743.80 L 576.30 741.90 L 607.90 740.50 L 642.60 739.70 L 680.40 739.60 L 721.70 740.30 L 766.60 741.80 L 815.30 744.20 L 816.80 739.40 Z" fill="#cececd" fill-rule="nonzero" group-id="5,45,85" node-id="216" stroke="none" target-height="59.599976" target-width="429.99997" target-x="394.1" target-y="719.4"></path></g></g></g><g node-id="608"><g node-id="648"><g node-id="688"><path d="M 832.10 828.60 L 832.10 805.00 L 413.00 805.00 L 410.50 804.50 L 408.10 803.40 L 405.70 801.80 L 403.80 799.80 L 402.20 797.30 L 401.10 794.30 L 400.30 790.60 L 400.10 786.20 L 400.10 748.20 L 400.30 743.80 L 401.10 740.10 L 402.20 737.10 L 403.80 734.60 L 405.70 732.60 L 408.10 731.00 L 410.50 729.90 L 413.00 729.40 L 832.10 729.40 L 832.10 705.80 L 411.30 705.80 L 406.80 706.10 L 402.70 706.90 L 398.90 708.10 L 395.30 709.90 L 392.10 712.20 L 385.50 720.00 L 381.30 726.20 L 377.70 732.80 L 374.70 739.90 L 372.40 747.40 L 371.10 754.60 L 370.40 761.80 L 370.50 769.10 L 371.20 776.40 L 372.70 783.90 L 375.00 791.50 L 378.00 799.20 L 382.00 807.20 L 389.10 818.90 L 391.70 821.80 L 394.70 824.20 L 398.10 826.00 L 401.90 827.40 L 406.30 828.30 L 411.30 828.60 L 832.10 828.60 Z" fill="#ffc23a" fill-rule="nonzero" group-id="6,46,86" node-id="227" stroke="none" target-height="122.79999" target-width="461.69998" target-x="370.4" target-y="705.8"></path></g></g></g><g node-id="609"><g node-id="649"><g node-id="689"><path d="M 488.10 729.40 L 488.10 705.80 L 411.30 705.80 L 406.80 706.10 L 402.70 706.90 L 398.90 708.10 L 395.30 709.90 L 392.10 712.20 L 390.90 713.40 L 385.50 720.00 L 381.30 726.20 L 377.70 732.80 L 374.70 739.90 L 372.40 747.40 L 371.10 754.60 L 370.40 761.80 L 370.50 769.10 L 371.20 776.40 L 372.70 783.90 L 375.00 791.50 L 378.00 799.20 L 382.00 807.20 L 389.10 818.90 L 391.70 821.80 L 394.70 824.20 L 398.10 826.00 L 401.90 827.40 L 406.30 828.30 L 411.30 828.60 L 488.10 828.60 L 488.10 805.00 L 413.00 805.00 L 410.50 804.50 L 408.10 803.40 L 405.70 801.80 L 403.80 799.80 L 402.20 797.30 L 401.10 794.30 L 400.30 790.60 L 400.10 786.20 L 400.10 748.20 L 400.30 743.80 L 401.10 740.10 L 402.20 737.10 L 403.80 734.60 L 405.70 732.60 L 408.10 731.00 L 410.50 729.90 L 413.00 729.40 L 488.10 729.40 Z" fill="#f9a431" fill-rule="nonzero" group-id="7,47,87" node-id="238" stroke="none" target-height="122.79999" target-width="117.70001" target-x="370.4" target-y="705.8"></path></g></g></g><g node-id="610"><g node-id="650"><g node-id="690"><path d="M 560.90 791.80 L 557.60 785.40 L 554.30 780.20 L 551.00 776.20 L 547.70 773.00 L 544.30 770.60 L 540.90 769.00 L 534.40 767.90 L 526.60 767.30 L 517.30 767.00 L 505.70 767.40 L 516.40 779.00 L 519.70 784.30 L 522.40 789.80 L 524.40 795.60 L 525.80 801.70 L 526.70 808.20 L 526.90 815.00 L 543.70 792.60 L 566.90 809.00 L 565.50 803.70 L 563.60 798.00 L 560.90 791.80 Z" fill="#ea5645" fill-rule="nonzero" group-id="8,48,88" node-id="249" stroke="none" target-height="48" target-width="61.200012" target-x="505.7" target-y="767"></path></g></g></g><g node-id="611"><g node-id="651"><g node-id="691"><path d="M 488.10 195.40 L 423.70 195.40 L 423.70 705.80 L 488.10 705.80 L 488.10 195.40 Z" fill="#f9a431" fill-rule="nonzero" group-id="9,49,89" node-id="260" stroke="none" target-height="510.4" target-width="64.399994" target-x="423.7" target-y="195.4"></path></g></g></g><g node-id="612"><g node-id="652"><g node-id="692"><path d="M 325.30 268.20 L 260.90 267.80 L 255.70 801.00 L 320.40 801.40 L 325.30 268.20 M 284.40 305.40 L 282.90 303.70 L 281.80 301.70 L 281.10 299.50 L 280.90 297.00 L 281.10 294.70 L 281.70 292.60 L 282.90 290.70 L 286.40 287.40 L 288.40 286.30 L 290.50 285.60 L 292.90 285.40 L 295.40 285.60 L 297.60 286.30 L 299.50 287.40 L 302.80 290.90 L 303.90 292.90 L 304.40 295.10 L 304.10 300.50 L 303.00 303.30 L 301.30 305.80 L 298.70 307.60 L 295.90 308.60 L 292.90 309.00 L 290.30 308.80 L 288.10 308.10 L 286.20 307.00 L 284.40 305.40 Z" fill="#22b1b6" fill-rule="nonzero" group-id="10,50,90" node-id="271" stroke="none" target-height="533.60004" target-width="69.59999" target-x="255.7" target-y="267.8"></path></g></g></g><g node-id="613"><g node-id="653"><g node-id="693"><path d="M 350.90 268.60 L 325.30 268.20 L 320.40 801.00 L 345.70 801.40 L 350.90 268.60 Z" fill="#22b1b6" fill-rule="nonzero" group-id="11,51,91" node-id="282" stroke="none" target-height="533.2" target-width="30.5" target-x="320.4" target-y="268.2"></path></g></g></g><g node-id="614"><g node-id="654"><g node-id="694"><path d="M 298.10 329.80 L 298.10 323.40 L 260.10 323.40 L 260.10 329.80 L 298.10 329.80 Z" fill="#ffffff" fill-rule="nonzero" group-id="12,52,92" node-id="293" stroke="none" target-height="6.399994" target-width="38" target-x="260.1" target-y="323.4"></path></g></g></g><g node-id="615"><g node-id="655"><g node-id="695"><path d="M 287.30 348.20 L 287.30 341.80 L 260.10 341.80 L 260.10 348.20 L 287.30 348.20 Z" fill="#ffffff" fill-rule="nonzero" group-id="13,53,93" node-id="304" stroke="none" target-height="6.4000244" target-width="27.199982" target-x="260.1" target-y="341.8"></path></g></g></g><g node-id="616"><g node-id="656"><g node-id="696"><path d="M 298.10 366.60 L 298.10 360.20 L 260.10 360.20 L 260.10 366.60 L 298.10 366.60 Z" fill="#ffffff" fill-rule="nonzero" group-id="14,54,94" node-id="315" stroke="none" target-height="6.399994" target-width="38" target-x="260.1" target-y="360.2"></path></g></g></g><g node-id="617"><g node-id="657"><g node-id="697"><path d="M 296.90 391.00 L 296.90 384.60 L 259.30 384.60 L 259.30 391.00 L 296.90 391.00 Z" fill="#ffffff" fill-rule="nonzero" group-id="15,55,95" node-id="326" stroke="none" target-height="6.399994" target-width="37.600006" target-x="259.3" target-y="384.6"></path></g></g></g><g node-id="618"><g node-id="658"><g node-id="698"><path d="M 286.10 409.40 L 286.10 403.00 L 259.30 403.00 L 259.30 409.40 L 286.10 409.40 Z" fill="#ffffff" fill-rule="nonzero" group-id="16,56,96" node-id="337" stroke="none" target-height="6.399994" target-width="26.800018" target-x="259.3" target-y="403"></path></g></g></g><g node-id="619"><g node-id="659"><g node-id="699"><path d="M 296.90 427.80 L 296.90 421.40 L 259.30 421.40 L 259.30 427.80 L 296.90 427.80 Z" fill="#ffffff" fill-rule="nonzero" group-id="17,57,97" node-id="348" stroke="none" target-height="6.399994" target-width="37.600006" target-x="259.3" target-y="421.4"></path></g></g></g><g node-id="620"><g node-id="660"><g node-id="700"><path d="M 296.90 457.00 L 296.90 450.60 L 259.30 450.60 L 259.30 457.00 L 296.90 457.00 Z" fill="#ffffff" fill-rule="nonzero" group-id="18,58,98" node-id="359" stroke="none" target-height="6.399994" target-width="37.600006" target-x="259.3" target-y="450.6"></path></g></g></g><g node-id="621"><g node-id="661"><g node-id="701"><path d="M 286.10 475.00 L 286.10 469.00 L 259.30 469.00 L 259.30 475.00 L 286.10 475.00 Z" fill="#ffffff" fill-rule="nonzero" group-id="19,59,99" node-id="370" stroke="none" target-height="6" target-width="26.800018" target-x="259.3" target-y="469"></path></g></g></g><g node-id="622"><g node-id="662"><g node-id="702"><path d="M 296.90 493.40 L 296.90 487.00 L 259.30 487.00 L 259.30 493.40 L 296.90 493.40 Z" fill="#ffffff" fill-rule="nonzero" group-id="20,60,100" node-id="381" stroke="none" target-height="6.399994" target-width="37.600006" target-x="259.3" target-y="487"></path></g></g></g><g node-id="623"><g node-id="663"><g node-id="703"><path d="M 295.70 519.40 L 295.70 513.00 L 258.10 513.00 L 258.10 519.40 L 295.70 519.40 Z" fill="#ffffff" fill-rule="nonzero" group-id="21,61,101" node-id="392" stroke="none" target-height="6.4000244" target-width="37.600006" target-x="258.1" target-y="513"></path></g></g></g><g node-id="624"><g node-id="664"><g node-id="704"><path d="M 284.90 537.80 L 284.90 531.40 L 258.10 531.40 L 258.10 537.80 L 284.90 537.80 Z" fill="#ffffff" fill-rule="nonzero" group-id="22,62,102" node-id="403" stroke="none" target-height="6.3999634" target-width="26.799988" target-x="258.1" target-y="531.4"></path></g></g></g><g node-id="625"><g node-id="665"><g node-id="705"><path d="M 295.70 556.20 L 295.70 549.80 L 258.10 549.80 L 258.10 556.20 L 295.70 556.20 Z" fill="#ffffff" fill-rule="nonzero" group-id="23,63,103" node-id="414" stroke="none" target-height="6.4000244" target-width="37.600006" target-x="258.1" target-y="549.8"></path></g></g></g><g node-id="626"><g node-id="666"><g node-id="706"><path d="M 294.40 584.20 L 294.40 577.80 L 256.90 577.80 L 256.90 584.20 L 294.40 584.20 Z" fill="#ffffff" fill-rule="nonzero" group-id="24,64,104" node-id="425" stroke="none" target-height="6.4000244" target-width="37.5" target-x="256.9" target-y="577.8"></path></g></g></g><g node-id="627"><g node-id="667"><g node-id="707"><path d="M 283.70 602.60 L 283.70 596.20 L 256.90 596.20 L 256.90 602.60 L 283.70 602.60 Z" fill="#ffffff" fill-rule="nonzero" group-id="25,65,105" node-id="436" stroke="none" target-height="6.3999634" target-width="26.800018" target-x="256.9" target-y="596.2"></path></g></g></g><g node-id="628"><g node-id="668"><g node-id="708"><path d="M 294.40 621.00 L 294.40 614.60 L 256.90 614.60 L 256.90 621.00 L 294.40 621.00 Z" fill="#ffffff" fill-rule="nonzero" group-id="26,66,106" node-id="447" stroke="none" target-height="6.4000244" target-width="37.5" target-x="256.9" target-y="614.6"></path></g></g></g><g node-id="629"><g node-id="669"><g node-id="709"><path d="M 294.40 659.40 L 294.40 653.00 L 256.90 653.00 L 256.90 659.40 L 294.40 659.40 Z" fill="#ffffff" fill-rule="nonzero" group-id="27,67,107" node-id="458" stroke="none" target-height="6.4000244" target-width="37.5" target-x="256.9" target-y="653"></path></g></g></g><g node-id="630"><g node-id="670"><g node-id="710"><path d="M 283.70 677.80 L 283.70 671.40 L 256.90 671.40 L 256.90 677.80 L 283.70 677.80 Z" fill="#ffffff" fill-rule="nonzero" group-id="28,68,108" node-id="469" stroke="none" target-height="6.3999634" target-width="26.800018" target-x="256.9" target-y="671.4"></path></g></g></g><g node-id="631"><g node-id="671"><g node-id="711"><path d="M 294.40 696.20 L 294.40 689.80 L 256.90 689.80 L 256.90 696.20 L 294.40 696.20 Z" fill="#ffffff" fill-rule="nonzero" group-id="29,69,109" node-id="480" stroke="none" target-height="6.4000244" target-width="37.5" target-x="256.9" target-y="689.8"></path></g></g></g><g node-id="632"><g node-id="672"><g node-id="712"><path d="M 293.30 720.20 L 293.30 713.80 L 255.70 713.80 L 255.70 720.20 L 293.30 720.20 Z" fill="#ffffff" fill-rule="nonzero" group-id="30,70,110" node-id="491" stroke="none" target-height="6.4000244" target-width="37.59999" target-x="255.7" target-y="713.8"></path></g></g></g><g node-id="633"><g node-id="673"><g node-id="713"><path d="M 282.40 738.60 L 282.40 732.20 L 255.70 732.20 L 255.70 738.60 L 282.40 738.60 Z" fill="#ffffff" fill-rule="nonzero" group-id="31,71,111" node-id="502" stroke="none" target-height="6.3999634" target-width="26.699997" target-x="255.7" target-y="732.2"></path></g></g></g><g node-id="634"><g node-id="674"><g node-id="714"><path d="M 293.30 757.00 L 293.30 750.60 L 255.70 750.60 L 255.70 757.00 L 293.30 757.00 Z" fill="#ffffff" fill-rule="nonzero" group-id="32,72,112" node-id="513" stroke="none" target-height="6.4000244" target-width="37.59999" target-x="255.7" target-y="750.6"></path></g></g></g><g node-id="635"><g node-id="675"><g node-id="715"><path d="M 314.40 497.00 L 280.40 482.20 L 192.90 753.40 L 192.10 756.80 L 192.00 760.10 L 192.30 763.40 L 193.30 766.60 L 194.90 769.60 L 196.80 772.10 L 199.10 774.00 L 207.70 778.20 L 210.50 779.10 L 213.30 779.30 L 216.20 778.90 L 219.30 777.80 L 221.80 776.00 L 223.90 773.80 L 225.60 771.20 L 226.90 768.20 L 314.40 497.00 Z" fill="#63a343" fill-rule="nonzero" group-id="33,73,113" node-id="524" stroke="none" target-height="297.09998" target-width="122.399994" target-x="192" target-y="482.2"></path></g></g></g><g node-id="636"><g node-id="676"><g node-id="716"><path d="M 226.90 768.20 L 230.10 758.20 L 196.10 743.40 L 192.90 753.40 L 192.10 756.80 L 192.00 760.10 L 192.30 763.40 L 193.30 766.60 L 194.90 769.60 L 196.80 772.10 L 199.10 774.00 L 207.70 778.20 L 210.50 779.10 L 213.30 779.30 L 216.20 778.90 L 219.30 777.80 L 221.80 776.00 L 223.90 773.80 L 225.60 771.20 L 226.90 768.20 Z" fill="#ffc23a" fill-rule="nonzero" group-id="34,74,114" node-id="535" stroke="none" target-height="35.899963" target-width="38.100006" target-x="192" target-y="743.4"></path></g></g></g><g node-id="637"><g node-id="677"><g node-id="717"><path d="M 280.40 482.20 L 314.10 496.60 L 319.30 420.20 L 280.40 482.20 Z" fill="#cececd" fill-rule="nonzero" group-id="35,75,115" node-id="546" stroke="none" target-height="76.399994" target-width="38.899994" target-x="280.4" target-y="420.2"></path></g></g></g><g node-id="638"><g node-id="678"><g node-id="718"><path d="M 309.30 436.20 L 318.10 439.80 L 319.30 420.20 L 309.30 436.20 Z" fill="#61313e" fill-rule="nonzero" group-id="36,76,116" node-id="557" stroke="none" target-height="19.599976" target-width="10" target-x="309.3" target-y="420.2"></path></g></g></g><g node-id="639"><g node-id="679"><g node-id="719"><path d="M 571.30 443.40 L 581.30 497.00 L 631.70 497.00 L 571.30 246.60 L 513.70 246.60 L 452.90 497.00 L 502.40 497.00 L 512.40 443.40 L 571.30 443.40 M 541.70 289.40 L 562.90 400.20 L 520.40 400.20 L 541.70 289.40 Z" fill="#ea5645" fill-rule="nonzero" group-id="37,77,117" node-id="568" stroke="none" target-height="250.4" target-width="178.80002" target-x="452.9" target-y="246.6"></path></g></g></g><g node-id="640"><g node-id="680"><g node-id="720"><path d="M 350.90 268.60 L 325.30 268.20 L 320.40 801.00 L 345.70 801.40 L 350.90 268.60 Z" fill="#179998" fill-rule="nonzero" group-id="38,78,118" node-id="579" stroke="none" target-height="533.2" target-width="30.5" target-x="320.4" target-y="268.2"></path></g></g></g><g node-id="641"><g node-id="681"><g node-id="721"><path d="M 786.10 372.20 L 592.10 372.20 L 592.10 674.60 L 786.10 674.60 L 786.10 372.20 Z" fill="#f9a431" fill-rule="nonzero" group-id="39,79,119" node-id="590" stroke="none" target-height="302.39996" target-width="194" target-x="592.1" target-y="372.2"></path></g></g></g><path d="M 678.40 414.60 L 631.70 414.60 L 631.70 620.20 L 684.90 620.20 L 695.30 619.90 L 704.50 619.00 L 712.60 617.60 L 719.70 615.70 L 725.90 613.40 L 731.30 610.80 L 736.10 607.80 L 740.20 604.50 L 743.80 600.80 L 747.00 596.70 L 749.70 592.10 L 752.00 587.00 L 753.90 581.30 L 755.30 575.00 L 756.10 568.00 L 756.40 560.20 L 756.10 552.70 L 755.10 546.00 L 753.50 540.00 L 751.30 534.70 L 748.60 530.00 L 745.40 525.70 L 741.60 522.00 L 737.20 518.70 L 732.10 515.80 L 726.30 513.40 L 719.70 511.40 L 724.60 509.70 L 729.20 507.40 L 733.30 504.60 L 737.00 501.30 L 740.40 497.40 L 743.20 493.40 L 745.40 489.00 L 747.20 484.20 L 748.50 479.00 L 749.40 473.30 L 749.70 467.00 L 749.30 460.20 L 748.40 454.00 L 746.90 448.50 L 744.90 443.40 L 742.30 438.80 L 739.30 434.60 L 735.60 430.80 L 731.40 427.40 L 726.50 424.30 L 720.90 421.60 L 714.50 419.20 L 707.10 417.30 L 698.70 415.80 L 689.20 414.90 L 678.40 414.60 M 670.90 449.00 L 688.10 449.20 L 693.20 449.90 L 697.30 450.90 L 700.60 452.20 L 703.20 453.80 L 705.60 456.20 L 707.40 459.00 L 708.80 462.50 L 709.70 466.70 L 710.10 471.80 L 709.70 477.50 L 708.70 482.20 L 707.10 486.10 L 705.00 489.40 L 702.50 492.00 L 699.30 494.10 L 695.50 495.60 L 690.80 496.60 L 685.30 497.00 L 670.90 497.00 L 670.90 449.00 M 685.30 585.00 L 670.90 585.00 L 670.90 529.00 L 688.10 529.00 L 693.90 529.30 L 698.80 530.30 L 702.90 531.80 L 706.40 533.70 L 709.30 536.20 L 711.70 539.10 L 713.70 542.70 L 715.20 546.90 L 716.10 551.90 L 716.50 557.80 L 716.20 563.20 L 715.30 567.80 L 714.00 571.60 L 712.30 574.90 L 710.20 577.60 L 707.70 579.80 L 704.80 581.50 L 701.30 582.90 L 697.00 584.00 L 691.70 584.70 L 685.30 585.00 Z" fill="#22b1b6" fill-rule="nonzero" group-id="40,80,120" node-id="601" stroke="none" target-height="205.6" target-width="124.70001" target-x="631.7" target-y="414.6"></path></svg>