<?xml version="1.0" standalone="no"?><!DOCTYPE svg PUBLIC "-//W3C//DTD SVG 1.1//EN" "http://www.w3.org/Graphics/SVG/1.1/DTD/svg11.dtd"><svg t="1742279367290" class="icon" viewBox="0 0 1024 1024" version="1.1" xmlns="http://www.w3.org/2000/svg" p-id="2069" xmlns:xlink="http://www.w3.org/1999/xlink" width="200" height="200"><path d="M518.3488 505.9584m-405.9648 0a405.9648 405.9648 0 1 0 811.9296 0 405.9648 405.9648 0 1 0-811.9296 0Z" fill="#C9C9F4" p-id="2070"></path><path d="M458.0352 411.1872m-284.3648 0a284.3648 284.3648 0 1 0 568.7296 0 284.3648 284.3648 0 1 0-568.7296 0Z" fill="#E6E6FF" p-id="2071"></path><path d="M430.8992 362.9568m-180.736 0a180.736 180.736 0 1 0 361.472 0 180.736 180.736 0 1 0-361.472 0Z" fill="#F3F3FF" p-id="2072"></path><path d="M518.3488 937.472a431.5648 431.5648 0 1 1 431.5648-431.5136 432.0256 432.0256 0 0 1-431.5648 431.5136z m0-811.8784a380.3648 380.3648 0 1 0 380.3648 380.3648 380.7744 380.7744 0 0 0-380.3648-380.3648z" fill="#434A54" p-id="2073"></path><path d="M669.952 461.568L491.52 358.4a51.2 51.2 0 0 0-76.8 44.544v205.9776a51.2 51.2 0 0 0 76.8 44.3392l178.3808-102.9632a51.2 51.2 0 0 0 0.0512-88.7296z" fill="#FFD16C" p-id="2074"></path><path d="M615.6288 430.08L491.52 358.4a51.2 51.2 0 0 0-76.8 44.544v205.9776a51.2 51.2 0 0 0 39.424 49.7664c14.1824-163.2768 92.928-215.0912 161.4848-228.608z" fill="#FFE8C0" p-id="2075"></path><path d="M465.92 686.08a76.8 76.8 0 0 1-76.8-76.8V402.944a76.8 76.8 0 0 1 115.2-66.56l178.3808 102.9632a76.8 76.8 0 0 1 0 133.12l-178.3296 102.9632A76.3392 76.3392 0 0 1 465.92 686.08z m0-308.5824a26.624 26.624 0 0 0-12.9536 3.5328A25.2416 25.2416 0 0 0 440.32 402.944v205.9776a25.6 25.6 0 0 0 38.4 22.1696l178.3808-102.9632a25.6 25.6 0 0 0 0-44.3904L478.7712 380.7744a25.0368 25.0368 0 0 0-12.8512-3.5328z" fill="#434A54" p-id="2076"></path></svg>