<?xml version="1.0" standalone="no"?><!DOCTYPE svg PUBLIC "-//W3C//DTD SVG 1.1//EN" "http://www.w3.org/Graphics/SVG/1.1/DTD/svg11.dtd"><svg t="1742279393686" class="icon" viewBox="0 0 1024 1024" version="1.1" xmlns="http://www.w3.org/2000/svg" p-id="2581" xmlns:xlink="http://www.w3.org/1999/xlink" width="200" height="200"><path d="M512 513.536m-409.0368 0a409.0368 409.0368 0 1 0 818.0736 0 409.0368 409.0368 0 1 0-818.0736 0Z" fill="#FFC50B" p-id="2582"></path><path d="M486.2976 487.8336m-365.2096 0a365.2096 365.2096 0 1 0 730.4192 0 365.2096 365.2096 0 1 0-730.4192 0Z" fill="#FFD16C" p-id="2583"></path><path d="M512 513.536m-284.2112 0a284.2112 284.2112 0 1 0 568.4224 0 284.2112 284.2112 0 1 0-568.4224 0Z" fill="#FFC50B" p-id="2584"></path><path d="M500.992 490.8032m-217.7536 0a217.7536 217.7536 0 1 0 435.5072 0 217.7536 217.7536 0 1 0-435.5072 0Z" fill="#FFD16C" p-id="2585"></path><path d="M481.9968 446.0544m-121.3952 0a121.3952 121.3952 0 1 0 242.7904 0 121.3952 121.3952 0 1 0-242.7904 0Z" fill="#FFE8C0" p-id="2586"></path><path d="M512 78.8992a434.6368 434.6368 0 1 0 434.6368 434.6368A435.2 435.2 0 0 0 512 78.8992z m0 818.0736a383.4368 383.4368 0 1 1 383.4368-383.4368A384 384 0 0 1 512 896.9728z" fill="#434A54" p-id="2587"></path><path d="M512 203.7248a309.8112 309.8112 0 1 0 309.8112 309.8112A310.2208 310.2208 0 0 0 512 203.7248z m0 568.32a258.6112 258.6112 0 1 1 258.6112-258.56A258.8672 258.8672 0 0 1 512 772.096z" fill="#434A54" p-id="2588"></path><path d="M615.6288 514.304a25.6 25.6 0 0 0 0-51.2h-44.9024l35.84-38.8096a25.6 25.6 0 1 0-37.6832-34.6624L516.608 446.3616 463.1552 389.4272a25.6 25.6 0 1 0-37.3248 35.0208l36.3008 38.656h-44.544a25.6 25.6 0 0 0 0 51.2H491.008V547.84H417.5872a25.6 25.6 0 0 0 0 51.2H491.008v56.8832a25.6 25.6 0 0 0 51.2 0V599.04h73.4208a25.6 25.6 0 1 0 0-51.2H542.208v-33.536z" fill="#434A54" p-id="2589"></path></svg>