<?xml version="1.0" standalone="no"?><!DOCTYPE svg PUBLIC "-//W3C//DTD SVG 1.1//EN" "http://www.w3.org/Graphics/SVG/1.1/DTD/svg11.dtd"><svg t="1742349675046" class="icon" viewBox="0 0 1024 1024" version="1.1" xmlns="http://www.w3.org/2000/svg" p-id="1475" xmlns:xlink="http://www.w3.org/1999/xlink" width="200" height="200"><path d="M813.7728 155.648H215.7568a123.904 123.904 0 0 0-123.904 123.904v343.04a123.8528 123.8528 0 0 0 123.904 123.904h131.7888a43.52 43.52 0 0 1 31.3344 13.312l108.544 112.128a43.7248 43.7248 0 0 0 61.0816 1.6384l124.3136-115.4048a43.6224 43.6224 0 0 1 29.696-11.6736h111.2576a123.8528 123.8528 0 0 0 123.904-123.904v-343.04a123.904 123.904 0 0 0-123.904-123.904z" fill="#7BD3FF" p-id="1476"></path><path d="M709.632 164.3008s134.3488 16.2304 134.3488 80.128v385.6896c0 46.336-26.0096 55.3984-82.5344 55.3984h-77.5168a80.2816 80.2816 0 0 0-54.8864 21.6576c-39.1168 36.608-114.7904 112.64-122.5728 119.552-10.5472 9.4208-28.2624 0-75.776-28.0576a751.2064 751.2064 0 0 0 87.8592 88.2176l161.6896-133.4272 173.4144-9.4208s79.872 11.3152 79.872-153.0368V257.792c0-33.1776-70.8608-116.8384-223.8976-93.4912z" fill="#5AB3FF" p-id="1477"></path><path d="M322.56 168.0896S174.3872 182.784 174.3872 272.128v346.0096c0 59.9552 42.1888 88.2176 103.2192 119.8592-49.7152 0-183.5008 16.9472-183.5008-135.68V265.3184c0-49.7664 59.9552-141.3632 228.4544-97.2288z" fill="#AEECFF" p-id="1478"></path><path d="M518.8096 910.7456a69.2224 69.2224 0 0 1-49.7664-20.9408l-108.544-112.128a17.9712 17.9712 0 0 0-12.9536-5.5296H215.7568a149.6576 149.6576 0 0 1-149.504-149.504v-343.04a149.6576 149.6576 0 0 1 149.504-149.504h598.016a149.6576 149.6576 0 0 1 149.504 149.504v343.04a149.6576 149.6576 0 0 1-149.504 149.504h-111.2576a18.0736 18.0736 0 0 0-12.288 4.8128l-124.3136 115.4048a68.9152 68.9152 0 0 1-47.104 18.3808zM215.7568 181.248a98.4064 98.4064 0 0 0-98.304 98.304v343.04a98.4064 98.4064 0 0 0 98.304 98.304h131.7888a69.6832 69.6832 0 0 1 49.7664 21.0944l108.4928 112.128a18.1248 18.1248 0 0 0 25.2416 0.6656L655.36 739.4816a68.9152 68.9152 0 0 1 47.104-18.5344h111.2576a98.4064 98.4064 0 0 0 98.304-98.304v-343.04a98.4064 98.4064 0 0 0-98.304-98.304z" fill="#434A54" p-id="1479"></path><path d="M227.5328 248.3712m60.5184 0l447.744 0q60.5184 0 60.5184 60.5184l0 265.6768q0 60.5184-60.5184 60.5184l-447.744 0q-60.5184 0-60.5184-60.5184l0-265.6768q0-60.5184 60.5184-60.5184Z" fill="#88DDFF" p-id="1480"></path><path d="M696.32 378.4704H343.04a25.6 25.6 0 1 1 0-51.2h353.28a25.6 25.6 0 0 1 0 51.2zM696.32 590.2336H343.04a25.6 25.6 0 1 1 0-51.2h353.28a25.6 25.6 0 0 1 0 51.2z" fill="#434A54" p-id="1481"></path></svg>