<?xml version="1.0" standalone="no"?><!DOCTYPE svg PUBLIC "-//W3C//DTD SVG 1.1//EN" "http://www.w3.org/Graphics/SVG/1.1/DTD/svg11.dtd"><svg t="1742353080520" class="icon" viewBox="0 0 1024 1024" version="1.1" xmlns="http://www.w3.org/2000/svg" p-id="1475" xmlns:xlink="http://www.w3.org/1999/xlink" width="200" height="200"><path d="M517.12 516.7104m-399.5648 0a399.5648 399.5648 0 1 0 799.1296 0 399.5648 399.5648 0 1 0-799.1296 0Z" fill="#B2B2EA" p-id="1476"></path><path d="M481.7408 481.3312m-341.504 0a341.504 341.504 0 1 0 683.008 0 341.504 341.504 0 1 0-683.008 0Z" fill="#C9C9F4" p-id="1477"></path><path d="M428.4928 378.3168m-219.2896 0a219.2896 219.2896 0 1 0 438.5792 0 219.2896 219.2896 0 1 0-438.5792 0Z" fill="#E6E6FF" p-id="1478"></path><path d="M209.92 262.3488a399.36 399.36 0 0 0 0 509.5424 289.5872 289.5872 0 0 0 0-509.5424z" fill="#FFD16C" p-id="1479"></path><path d="M193.024 257.024C146.2272 327.68 118.1184 418.304 118.1184 517.12c0 97.28 27.392 187.0336 73.0624 257.1776a445.7472 445.7472 0 0 0 43.6224-43.2128C141.568 510.72 244.736 349.44 261.12 326.0928A256.9728 256.9728 0 0 0 193.024 257.024z" fill="#FFE8C0" p-id="1480"></path><path d="M669.3376 517.12A289.3824 289.3824 0 0 0 824.32 773.376 399.36 399.36 0 0 0 824.32 261.12a289.3824 289.3824 0 0 0-154.9824 256z" fill="#FFD16C" p-id="1481"></path><path d="M850.688 336.5888A409.2928 409.2928 0 0 0 806.5536 261.12c-81.5616 48.4864-137.216 144.9984-137.216 256.256 0 107.1104 51.6096 200.5504 128.256 250.624l30.3616-33.536s-94.8736-84.4288-94.8736-217.088 117.6064-180.7872 117.6064-180.7872z" fill="#FFE8C0" p-id="1482"></path><path d="M843.776 244.4288a26.5728 26.5728 0 0 0-3.1744-3.1744A424.96 424.96 0 0 0 167.3216 757.76c1.0752 1.6384 2.2528 3.1744 3.3792 4.8128 2.3552 3.2768 4.6592 6.5536 7.0656 9.728 3.9936 5.12 8.1408 10.5984 12.3904 15.7696a17.664 17.664 0 0 0 1.3312 1.4336 424.3456 424.3456 0 0 0 647.168 4.7616 24.2688 24.2688 0 0 0 5.12-4.608 424.96 424.96 0 0 0 0-545.3824z m46.08 246.6816H696.32a263.168 263.168 0 0 1 121.1904-196.8128 371.5072 371.5072 0 0 1 72.6016 196.8128z m0 51.2a372.0192 372.0192 0 0 1-72.96 197.376A263.0144 263.0144 0 0 1 696.32 542.3104z m-105.9328-287.2832A314.0608 314.0608 0 0 0 645.12 491.1104h-102.4V143.7696a372.8896 372.8896 0 0 1 241.2032 111.2576zM491.52 143.7696v347.3408H386.2528a314.9312 314.9312 0 0 0-137.1136-234.8032A372.6848 372.6848 0 0 1 491.52 143.7696zM215.04 736.9728a374.6304 374.6304 0 0 1-70.5536-194.56H334.848a263.8848 263.8848 0 0 1-118.6816 196.0448z m-70.5024-245.76a374.5792 374.5792 0 0 1 71.68-195.2256 263.5776 263.5776 0 0 1 118.528 195.1232z m104.9088 286.72a314.8288 314.8288 0 0 0 136.704-235.52H491.52v347.392a372.8896 372.8896 0 0 1-241.92-112.1792zM542.72 889.7024v-347.392h102.0416a314.3168 314.3168 0 0 0 138.5984 236.544 372.736 372.736 0 0 1-240.64 110.848z" fill="#434A54" p-id="1483"></path></svg>