<?xml version="1.0" standalone="no"?><!DOCTYPE svg PUBLIC "-//W3C//DTD SVG 1.1//EN" "http://www.w3.org/Graphics/SVG/1.1/DTD/svg11.dtd"><svg t="1742279826628" class="icon" viewBox="0 0 1024 1024" version="1.1" xmlns="http://www.w3.org/2000/svg" p-id="2946" xmlns:xlink="http://www.w3.org/1999/xlink" width="200" height="200"><path d="M413.184 799.3856a100.1472 100.1472 0 0 0-1.5872 17.6128 103.0656 103.0656 0 1 0 206.1312 0 100.1472 100.1472 0 0 0-1.5872-17.6128z" fill="#FFC50B" p-id="2947"></path><path d="M566.2208 804.7104s-19.0976 98.5088-138.9568 59.5456c-16.7936-41.984-19.8656-57.2416-19.8656-57.2416z" fill="#FFDC87" p-id="2948"></path><path d="M817.7664 549.0176V416.8704a304.64 304.64 0 0 0-304.64-304.64 304.5888 304.5888 0 0 0-304.5888 304.64v132.1472a132.1472 132.1472 0 0 0-72.7552 118.0672 132.3008 132.3008 0 0 0 132.3008 132.3008h490.1376a132.3008 132.3008 0 0 0 132.3008-132.3008 132.1472 132.1472 0 0 0-72.7552-118.0672z" fill="#C9C9F4" p-id="2949"></path><path d="M843.3664 534.1696V416.8704a330.24 330.24 0 1 0-660.48 0v117.2992a157.8496 157.8496 0 0 0 85.1456 290.816h118.2208a128.6656 128.6656 0 0 0 256.8192 0h115.1488a157.8496 157.8496 0 0 0 85.1456-290.816z m-328.704 360.3456a77.6192 77.6192 0 0 1-76.8-69.5296h154.112a77.6192 77.6192 0 0 1-77.312 69.5296z m243.5584-120.7296H268.0832A106.6496 106.6496 0 0 1 220.16 571.8528a25.6 25.6 0 0 0 14.08-22.8352V416.8704a279.04 279.04 0 1 1 558.08 0v132.1472a25.6 25.6 0 0 0 14.08 22.8352 106.6496 106.6496 0 0 1-48.0256 201.9328z" fill="#434A54" p-id="2950"></path><path d="M727.552 564.5824H721.92V410.368a208.7936 208.7936 0 0 0-208.8448-208.7936 208.7936 208.7936 0 0 0-208.7424 208.7936v154.2144h-5.5808a84.7872 84.7872 0 1 0 0 169.5232h428.8a84.7872 84.7872 0 1 0 0-169.5232z" fill="#E6E6FF" p-id="2951"></path><path d="M475.136 257.1264s-98.5088 10.24-98.5088 147.7632v163.84h53.1456V396.8512c0-50.3808 23.6032-122.5216 45.3632-139.7248z" fill="#F8F8FF" p-id="2952"></path></svg>