<?xml version="1.0" standalone="no"?><!DOCTYPE svg PUBLIC "-//W3C//DTD SVG 1.1//EN" "http://www.w3.org/Graphics/SVG/1.1/DTD/svg11.dtd"><svg t="1742279334868" class="icon" viewBox="0 0 1024 1024" version="1.1" xmlns="http://www.w3.org/2000/svg" p-id="1458" xmlns:xlink="http://www.w3.org/1999/xlink" width="200" height="200"><path d="M115.4048 821.4016V236.2368A28.3136 28.3136 0 0 1 128 212.5312c46.08-30.1568 209.2544-117.504 380.5184 29.44 126.6688-155.9552 327.68-65.1776 383.1296-34.2016a28.3648 28.3648 0 0 1 14.592 24.7808v589.3632a15.0528 15.0528 0 0 1-22.9888 12.6976c-54.528-33.5872-200.2944-97.28-373.0432 37.0688C399.36 740.9664 213.5552 783.36 138.8544 833.8432a15.0528 15.0528 0 0 1-23.4496-12.4416z" fill="#C0DAF9" p-id="1459"></path><path d="M219.5456 170.9568A338.944 338.944 0 0 0 128 212.5312a28.3136 28.3136 0 0 0-12.8 23.7056v585.1648a15.0016 15.0016 0 0 0 23.4496 12.4416 288.3584 288.3584 0 0 1 80.6912-35.84zM593.4592 174.7968a236.0832 236.0832 0 0 0-84.736 67.1744 367.5648 367.5648 0 0 0-85.4528-55.7568v620.4928a238.2848 238.2848 0 0 1 87.04 64.9728 431.9744 431.9744 0 0 1 83.0464-51.456zM892.928 207.7696a421.7344 421.7344 0 0 0-82.3296-37.4272v629.76a275.6608 275.6608 0 0 1 74.496 34.4576 13.9776 13.9776 0 0 0 21.3504-12.6976V232.5504a28.7744 28.7744 0 0 0-13.5168-24.7808z" fill="#9EBFEF" p-id="1460"></path><path d="M198.0928 191.0784v607.5904l64.8192-12.8V158.6688l-64.8192 32.4096zM584.0384 191.0784v607.5904l64.8704-12.8V158.6688l-64.8704 32.4096z" fill="#E9F5FF" p-id="1461"></path><path d="M904.3456 185.3952c-42.2912-23.6032-253.5424-129.4336-398.5408 21.248-177.408-135.8848-343.6544-47.0528-391.68-15.36a53.76 53.76 0 0 0-24.32 45.1072v585.0112A40.6016 40.6016 0 0 0 153.1904 855.04c68.5056-46.336 237.9264-84.1216 337.92 33.2288a25.6 25.6 0 0 0 35.2256 3.584c159.9488-124.5696 293.7856-66.304 343.9104-35.4304a40.6528 40.6528 0 0 0 61.5936-34.5088V232.5504a54.0672 54.0672 0 0 0-27.4944-47.1552zM313.5488 759.1936h-2.816a363.8272 363.8272 0 0 0-169.728 43.3152V236.2368a2.7136 2.7136 0 0 1 1.2288-2.304c41.472-27.2384 187.0336-104.8576 341.4528 20.48l1.536 558.6944c-58.0608-43.264-122.624-53.9136-171.6736-53.9136zM880.64 803.84c-62.9248-33.8432-191.9488-76.8-344.4224 18.6368L534.8864 250.88c119.5008-135.7824 307.456-41.2672 344.4736-20.48a2.816 2.816 0 0 1 1.4848 2.4576z" fill="#434A54" p-id="1462"></path></svg>