<?xml version="1.0" standalone="no"?><!DOCTYPE svg PUBLIC "-//W3C//DTD SVG 1.1//EN" "http://www.w3.org/Graphics/SVG/1.1/DTD/svg11.dtd"><svg t="1774667961504" class="icon" viewBox="0 0 1024 1024" version="1.1" xmlns="http://www.w3.org/2000/svg" p-id="3134" xmlns:xlink="http://www.w3.org/1999/xlink" width="200" height="200"><path d="M123.450745 362.856689c1.083693 0-1.083693 0 0-0.541846M998.352588 282.302143L857.291825 310.658788S716.140753 282.211835 490.371285 282.211835 123.450745 310.658788 123.450745 310.658788h-3.25108c-59.241908 7.405239-94.642561 42.625276-94.642561 94.100715v34.136343a93.739483 93.739483 0 0 0 93.378252 94.371638h13.636476C169.598025 682.455948 316.077255 793.80545 504.4593 793.80545a447.023547 447.023547 0 0 0 111.891348-13.997707l81.277009 50.030514 152.349237-78.567775L766.351883 704.400741a309.575095 309.575095 0 0 0 118.122586-260.447659l113.878119 37.297116zM76.761619 439.347385v-34.136343c0-23.480025 15.803863-37.658347 46.689126-42.354353v118.845048h-4.515389a42.354352 42.354352 0 0 1-42.173737-42.354352z m199.58021-83.354088a25.466796 25.466796 0 1 1-25.557104 25.828028 25.647412 25.647412 0 0 1 25.557104-25.828028z m228.117471 381.008555C334.138813 737.001852 198.677132 630.348355 181.699268 489.106976c54.184672 52.468824 160.476938 81.277009 246.811183 5.779698 154.245701-135.461681 170.952641 182.060499 400.334421-30.975571-2.799541 153.523238-144.221536 273.090749-324.385572 273.090749z" p-id="3135" fill="#ea9518"></path></svg>