<?xml version="1.0" standalone="no"?><!DOCTYPE svg PUBLIC "-//W3C//DTD SVG 1.1//EN" "http://www.w3.org/Graphics/SVG/1.1/DTD/svg11.dtd"><svg t="1774667671246" class="icon" viewBox="0 0 1242 1024" version="1.1" xmlns="http://www.w3.org/2000/svg" p-id="2511" xmlns:xlink="http://www.w3.org/1999/xlink" width="242.578125" height="200"><path d="M291.184602 242.283405m-39.491178 0a39.491179 39.491179 0 1 0 78.982357 0 39.491179 39.491179 0 1 0-78.982357 0Z" p-id="2512" fill="#ea9518"></path><path d="M292.713763 339.372966a95.900213 95.900213 0 1 1 24.806383-3.276773 96.337116 96.337116 0 0 1-24.806383 3.276773z m0.145634-157.988987a62.210136 62.210136 0 1 0 60.122711 46.117541 61.967412 61.967412 0 0 0-60.122711-46.117541z" p-id="2513" fill="#ea9518"></path><path d="M1233.89996 158.276663C1211.690724 119.028209 1150.742752 79.318578 1092.100658 65.774585c-71.360827-16.335319-134.784582 5.291381-176.144735 26.966625a541.614112 541.614112 0 0 0-117.939543-59.879986c-12.937184-4.684571-25.728733-8.73806-38.350377-12.28183q-22.354871-5.971008-45.001011-9.903135l1.189347-0.50972A816.668836 816.668836 0 0 0 607.114032 0.336221c-56.724576-1.310709-215.077648-3.106866-384.134846 85.778627a739.846722 739.846722 0 0 0-159.081244 113.157882 103.643106 103.643106 0 0 0-60.365434 69.491853 103.133385 103.133385 0 0 0 17.985841 89.807843 357.556578 357.556578 0 0 0 422.145408 111.385998l105.876165-44.612653a132.43016 132.43016 0 0 1 173.280593 70.559838 238.621867 238.621867 0 0 1-102.963479 300.977637 39.491179 39.491179 0 0 0 38.641645 68.885043 317.507135 317.507135 0 0 0 137.114732-400.494436 211.509607 211.509607 0 0 0-276.705247-112.672435l-7.136083 2.985504c13.131363-45.243735 8.83515-95.608944-12.718732-146.775143a39.508169 39.508169 0 1 0-72.81717 30.680302c32.646365 77.477469 7.912799 140.221597-67.962692 172.13979a40.292168 40.292168 0 0 0-6.310822 3.398135 278.452859 278.452859 0 0 1-267.797279-104.589729 24.466569 24.466569 0 0 1-4.271941-21.359704 25.219013 25.219013 0 0 1 14.563434-16.990673 689.335878 689.335878 0 0 1 172.867962-121.192043c157.576356-77.404652 300.249465-71.506461 360.00809-68.302506 46.845713 2.427239 99.516799 5.752556 163.377457 31.724014a423.650296 423.650296 0 0 1 232.189684 229.446903c91.312731 216.752443-10.728396 467.389143-227.456568 558.701875l-26.384088 11.116755a397.727384 397.727384 0 0 1-360.299358-26.384088 39.078548 39.078548 0 0 0-4.854478-7.839982c-69.273401-88.691313 68.982133-253.743566 70.389931-255.369816a39.515451 39.515451 0 0 0 6.505001-41.263063l-0.776717-1.82043a39.515451 39.515451 0 0 0-47.962243-22.282054c-80.098887 24.806383-145.12462 23.010226-185.562422 17.136308-42.476683-6.189459-67.622879-18.010113-69.491852-18.932465a39.175638 39.175638 0 0 0-44.831105 5.898191 39.661085 39.661085 0 0 0-9.514777 44.636925l52.525452 124.662996a476.928193 476.928193 0 0 0 624.625686 254.301831l26.384088-11.116755a505.496796 505.496796 0 0 0 269.593437-662.150801c-1.043713-2.427239-2.111698-4.854478-3.179683-7.281717-0.218452-0.582537-0.412631-1.189347-0.655355-1.771885l-4.854478-11.359478A191.557702 191.557702 0 0 1 1140.815345 253.351615a208.985279 208.985279 0 0 1 49.272951-16.165412c18.908192-4.247668 42.428138-9.514777 50.510844-34.296887 3.058321-9.490505 4.417575-24.952017-6.69918-44.612653z m-927.2053 640.524102a396.101134 396.101134 0 0 1-58.739184-97.550736l-20.51017-48.54478a466.029889 466.029889 0 0 0 129.833015 2.427239c-23.131588 40.462074-45.559276 91.628273-50.583661 143.668277z m807.833686-599.285311a247.918192 247.918192 0 0 0-53.61771 35.559052 560.692211 560.692211 0 0 0-91.167097-101.021688c30.170581-11.602202 68.229688-19.150916 108.983032-9.708956 44.515563 10.194404 81.555231 37.258119 96.943926 54.807057a261.340824 261.340824 0 0 0-61.142151 20.364535z" p-id="2514" fill="#ea9518"></path></svg>