<?xml version="1.0" standalone="no"?><!DOCTYPE svg PUBLIC "-//W3C//DTD SVG 1.1//EN" "http://www.w3.org/Graphics/SVG/1.1/DTD/svg11.dtd"><svg t="1774667828877" class="icon" viewBox="0 0 1024 1024" version="1.1" xmlns="http://www.w3.org/2000/svg" p-id="2745" xmlns:xlink="http://www.w3.org/1999/xlink" width="200" height="200"><path d="M188.737255 481.882353c-8.031373 8.031373-12.047059 18.070588-12.047059 30.117647 0 10.039216 4.015686 22.086275 12.047059 30.117647 6.023529 8.031373 18.070588 12.047059 28.109804 12.047059 10.039216 0 20.078431-4.015686 28.109804-12.047059 8.031373-8.031373 12.047059-18.070588 12.047059-30.117647s-4.015686-22.086275-12.047059-30.117647c-14.054902-14.054902-40.156863-14.054902-56.219608 0z" fill="#ea9518" p-id="2746"></path><path d="M512 0c-283.105882 0-512 228.894118-512 512s228.894118 512 512 512 512-228.894118 512-512-228.894118-512-512-512z m-64.25098 736.878431l76.298039 86.337255-56.219608 56.219608-120.470588-138.541176c-92.360784-12.047059-176.690196-68.266667-242.94902-158.619608l-40.156863-70.27451 40.156863-70.27451c66.258824-90.352941 150.588235-146.572549 242.94902-158.619608l120.470588-138.541176 56.219608 56.219608-76.298039 86.337255c84.329412 18.070588 160.627451 70.27451 220.862745 154.603921l50.196078 70.27451-50.196078 70.27451c-60.235294 84.329412-136.533333 136.533333-220.862745 154.603921z m232.909804-66.258823c20.078431-20.078431 40.156863-40.156863 58.227451-64.250981l74.290196-96.37647-74.290196-96.376471c-18.070588-24.094118-38.14902-44.172549-58.227451-64.25098l204.8-128.501961v576.25098l-204.8-126.494117z" fill="#ea9518" p-id="2747"></path></svg>