<?xml version="1.0" standalone="no"?><!DOCTYPE svg PUBLIC "-//W3C//DTD SVG 1.1//EN" "http://www.w3.org/Graphics/SVG/1.1/DTD/svg11.dtd"><svg t="1774667538197" class="icon" viewBox="0 0 1024 1024" version="1.1" xmlns="http://www.w3.org/2000/svg" p-id="2221" xmlns:xlink="http://www.w3.org/1999/xlink" width="200" height="200"><path d="M880.4 546.1c32-25.4 53.8-61.1 61.3-100.1-44.3-36.2-106.9-48.7-165.8-27.3-20.3 7.5-38.3 18.1-53.4 31.5-51.2-90.3-141.9-155.3-248.3-171.9-34.9-36.2-83.9-58.9-138.1-58.9-105.7 0-191.7 85.9-192 191.5-13.2 17.3-25 35.8-34.8 55.4-11.7 22.9-20.7 47.4-26.9 73 26.5 0 48 21.5 48 48 0 14-6.1 26.4-15.6 35.2 58.9 108.4 173.6 182.2 305.5 182.2 125.7 0 235.8-67 296.7-166.9 0.2 0 36.2 27.6 58.9 35.9 58.9 21.4 121.5 9 165.8-27.3-7.5-39-29.3-74.7-61.3-100.3zM181.9 368.7c2-7.3 4.6-14.4 7.6-21.2-0.6 5.2-1.1 10.4-1.1 15.8 0 70.7 57.3 128 128 128s128-57.3 128-128c0-40.4-18.7-76.3-47.9-99.8 7.3 3 14.4 6.4 21.1 10.5 15.4 9.2 29.1 20.7 40.6 34.3 23.5 27.9 37.7 63.8 37.7 103 0 88.2-71.8 160-160 160-84.9 0-154.4-66.5-159.5-150.2-0.2-3.3-0.5-6.5-0.5-9.8 0.1-14.8 2.3-29 6-42.6z m653.2 283.4c-16.4 0-33-2.1-48.3-8.6-36.8-15.6-71.3-44.4-80-50.9-5.1 9.4-17.2 27.2-17.2 27.2-57.9 95-158.6 152.9-269.4 152.9-108.9 0-209.6-56.3-267.2-148.2 6-11.4 9.3-24.2 9.3-37.2 0-29.7-16.3-55.7-40.4-69.5 4.5-12.9 9.7-25.2 15.8-37 3.8-7.7 8-15.1 12.4-22.3 21.1 83.1 96.3 144.8 185.9 144.8 105.9 0 192-86.1 192-192 0-34.3-9.1-66.4-24.9-94.3 79.9 21.9 149.5 74.9 191.5 148.9l19.4 34.3 29.6-26c12.3-10.8 26.9-19.4 43.4-25.5 15.5-5.6 31.8-8.5 48.1-8.5 24.8 0 49 6.7 69.9 19.1-8.5 23.9-23.9 45.4-44.5 61.8L829 546l31.3 25.1c20.7 16.5 36.1 38.1 44.6 62-20.8 12.4-45 19-69.8 19z" fill="#e0620d" p-id="2222"></path></svg>